<?xml version="1.0" encoding="UTF-8" standalone="no"?>
<!-- Generator: Adobe Illustrator 21.1.0, SVG Export Plug-In . SVG Version: 6.00 Build 0)  -->

<svg
   xmlns:dc="http://purl.org/dc/elements/1.1/"
   xmlns:cc="http://creativecommons.org/ns#"
   xmlns:rdf="http://www.w3.org/1999/02/22-rdf-syntax-ns#"
   xmlns:svg="http://www.w3.org/2000/svg"
   xmlns="http://www.w3.org/2000/svg"
   xmlns:sodipodi="http://sodipodi.sourceforge.net/DTD/sodipodi-0.dtd"
   xmlns:inkscape="http://www.inkscape.org/namespaces/inkscape"
   version="1.0"
   x="0px"
   y="0px"
   viewBox="0 0 621 142"
   xml:space="preserve"
   id="svg3873"
   sodipodi:docname="LogoHorizontalDescription.svg"
   width="621"
   height="142"
   inkscape:version="0.92.3 (2405546, 2018-03-11)"><metadata
   id="metadata3879"><rdf:RDF><cc:Work
       rdf:about=""><dc:format>image/svg+xml</dc:format><dc:type
         rdf:resource="http://purl.org/dc/dcmitype/StillImage" /><dc:title></dc:title></cc:Work></rdf:RDF></metadata><defs
   id="defs3877" /><sodipodi:namedview
   pagecolor="#ffffff"
   bordercolor="#666666"
   borderopacity="1"
   objecttolerance="10"
   gridtolerance="10"
   guidetolerance="10"
   inkscape:pageopacity="0"
   inkscape:pageshadow="2"
   inkscape:window-width="1920"
   inkscape:window-height="1017"
   id="namedview3875"
   showgrid="false"
   fit-margin-top="0"
   fit-margin-left="0"
   fit-margin-right="0"
   fit-margin-bottom="0"
   inkscape:zoom="1.2571225"
   inkscape:cx="432.76961"
   inkscape:cy="-69.127766"
   inkscape:window-x="1272"
   inkscape:window-y="-8"
   inkscape:window-maximized="1"
   inkscape:current-layer="svg3873" />
<style
   type="text/css"
   id="style3797">
	.st0{fill:#FBC02D;}
	.st1{display:none;}
	.st2{display:inline;fill:#FBC02D;}
	.st3{display:inline;}
</style>
<g
   id="Слой_1"
   transform="translate(-43,-59)">
	<g
   id="g3801">
		<path
   class="st0"
   d="M 173,79 H 53 C 47.5,79 43,74.5 43,69 v 0 c 0,-5.5 4.5,-10 10,-10 h 120 c 5.5,0 10,4.5 10,10 v 0 c 0,5.5 -4.5,10 -10,10 z"
   id="path3799"
   inkscape:connector-curvature="0"
   style="fill:#fbc02d" />
	</g>
	<g
   id="g3805">
		<path
   class="st0"
   d="M 173,109 H 53 c -5.5,0 -10,-4.5 -10,-10 v 0 c 0,-5.5 4.5,-10 10,-10 h 120 c 5.5,0 10,4.5 10,10 v 0 c 0,5.5 -4.5,10 -10,10 z"
   id="path3803"
   inkscape:connector-curvature="0"
   style="fill:#fbc02d" />
	</g>
	<g
   id="g3809">
		<path
   class="st0"
   d="M 173,139 H 53 c -5.5,0 -10,-4.5 -10,-10 v 0 c 0,-5.5 4.5,-10 10,-10 h 120 c 5.5,0 10,4.5 10,10 v 0 c 0,5.5 -4.5,10 -10,10 z"
   id="path3807"
   inkscape:connector-curvature="0"
   style="fill:#fbc02d" />
	</g>
	<polygon
   class="st0"
   points="79.8,149.1 113,201 146.2,149.1 "
   id="polygon3811"
   style="fill:#fbc02d" />
	<g
   id="g3833">
		<path
   d="m 250.4,102.9 h -25.2 v 26.4 H 214.3 V 66.8 H 254 v 8.8 h -28.9 v 18.6 h 25.2 v 8.7 z"
   id="path3813"
   inkscape:connector-curvature="0" />
		<path
   d="M 262.7,129.3 V 66.8 h 18.5 c 5.5,0 10.4,1.2 14.7,3.7 4.3,2.5 7.6,6 9.9,10.5 2.3,4.5 3.5,9.7 3.5,15.6 v 3.1 c 0,5.9 -1.2,11.1 -3.5,15.6 -2.4,4.5 -5.7,8 -10.1,10.4 -4.4,2.4 -9.4,3.7 -15,3.7 h -18 z m 10.9,-53.8 v 45 h 7.1 c 5.7,0 10.1,-1.8 13.1,-5.3 3.1,-3.6 4.6,-8.7 4.7,-15.3 v -3.5 c 0,-6.8 -1.5,-12 -4.4,-15.5 -3,-3.6 -7.2,-5.4 -12.8,-5.4 z"
   id="path3815"
   inkscape:connector-curvature="0" />
		<path
   d="m 334.3,66.8 18,48 18,-48 h 14.1 v 62.6 h -10.8 v -20.6 l 1.1,-27.6 -18.5,48.2 h -7.8 L 330,81.2 l 1.1,27.5 v 20.6 H 320.3 V 66.8 Z"
   id="path3817"
   inkscape:connector-curvature="0" />
		<path
   d="m 402.7,118.3 c 1.9,0 3.5,0.6 4.5,1.7 1.1,1.1 1.6,2.5 1.6,4.1 0,1.6 -0.5,3 -1.6,4.1 -1.1,1.1 -2.6,1.6 -4.5,1.6 -1.9,0 -3.3,-0.5 -4.4,-1.6 -1.1,-1.1 -1.6,-2.4 -1.6,-4.1 0,-1.7 0.5,-3 1.6,-4.1 1,-1.1 2.5,-1.7 4.4,-1.7 z"
   id="path3819"
   inkscape:connector-curvature="0" />
		<path
   d="m 439.9,121.9 c 2.6,0 4.8,-0.8 6.5,-2.3 1.7,-1.5 2.6,-3.4 2.8,-5.6 h 9.8 c -0.1,2.9 -1,5.6 -2.7,8.1 -1.7,2.5 -4,4.5 -6.9,6 -2.9,1.5 -6,2.2 -9.4,2.2 -6.5,0 -11.7,-2.1 -15.5,-6.3 -3.8,-4.2 -5.7,-10 -5.7,-17.4 v -1.1 c 0,-7.1 1.9,-12.7 5.7,-17 3.8,-4.3 9,-6.5 15.5,-6.5 5.5,0 10,1.6 13.5,4.8 3.5,3.2 5.3,7.5 5.5,12.7 h -9.8 c -0.1,-2.7 -1,-4.9 -2.7,-6.6 -1.7,-1.7 -3.9,-2.6 -6.5,-2.6 -3.4,0 -6,1.2 -7.8,3.7 -1.8,2.4 -2.8,6.2 -2.8,11.2 v 1.7 c 0,5 0.9,8.8 2.7,11.3 1.7,2.4 4.4,3.7 7.8,3.7 z"
   id="path3821"
   inkscape:connector-curvature="0" />
		<path
   d="m 487.3,130.2 c -6.6,0 -12,-2.1 -16.1,-6.3 -4.1,-4.2 -6.2,-9.7 -6.2,-16.7 V 106 c 0,-4.6 0.9,-8.8 2.7,-12.4 1.8,-3.7 4.3,-6.5 7.5,-8.5 3.2,-2 6.8,-3.1 10.8,-3.1 6.3,0 11.2,2 14.7,6.1 3.5,4 5.2,9.8 5.2,17.1 v 4.2 h -30.4 c 0.3,3.8 1.6,6.9 3.8,9.1 2.2,2.2 5.1,3.4 8.5,3.4 4.8,0 8.7,-1.9 11.7,-5.8 l 5.6,5.4 c -1.9,2.8 -4.3,4.9 -7.5,6.5 -2.9,1.4 -6.4,2.2 -10.3,2.2 z m -1.2,-39.8 c -2.9,0 -5.2,1 -6.9,3 -1.8,2 -2.9,4.8 -3.4,8.4 h 19.9 V 101 c -0.2,-3.5 -1.2,-6.1 -2.8,-7.9 -1.6,-1.8 -3.9,-2.7 -6.8,-2.7 z"
   id="path3823"
   inkscape:connector-curvature="0" />
		<path
   d="m 523.8,82.8 0.3,5.4 C 527.5,84 532,82 537.6,82 c 9.7,0 14.6,5.5 14.8,16.6 v 30.7 H 542 V 99.2 c 0,-3 -0.6,-5.1 -1.9,-6.6 -1.3,-1.4 -3.4,-2.1 -6.3,-2.1 -4.2,0 -7.3,1.9 -9.4,5.7 v 33.1 H 514 V 82.8 Z"
   id="path3825"
   inkscape:connector-curvature="0" />
		<path
   d="m 576.1,71.5 v 11.3 h 8.2 v 7.7 h -8.2 v 26 c 0,1.8 0.4,3.1 1.1,3.8 0.7,0.8 2,1.2 3.8,1.2 1.2,0 2.4,-0.1 3.7,-0.4 v 8.1 c -2.4,0.7 -4.7,1 -6.9,1 -8,0 -12,-4.4 -12,-13.3 V 90.6 H 558 v -7.7 h 7.6 V 71.5 Z"
   id="path3827"
   inkscape:connector-curvature="0" />
		<path
   d="m 612.8,130.2 c -6.6,0 -12,-2.1 -16.1,-6.3 -4.1,-4.2 -6.2,-9.7 -6.2,-16.7 V 106 c 0,-4.6 0.9,-8.8 2.7,-12.4 1.8,-3.7 4.3,-6.5 7.5,-8.5 3.2,-2 6.8,-3.1 10.8,-3.1 6.3,0 11.2,2 14.7,6.1 3.5,4 5.2,9.8 5.2,17.1 v 4.2 H 601 c 0.3,3.8 1.6,6.9 3.8,9.1 2.2,2.2 5.1,3.4 8.5,3.4 4.8,0 8.7,-1.9 11.7,-5.8 l 5.6,5.4 c -1.9,2.8 -4.3,4.9 -7.5,6.5 -3,1.4 -6.5,2.2 -10.3,2.2 z m -1.3,-39.8 c -2.9,0 -5.2,1 -6.9,3 -1.8,2 -2.9,4.8 -3.4,8.4 h 19.9 V 101 c -0.2,-3.5 -1.2,-6.1 -2.8,-7.9 -1.6,-1.8 -3.9,-2.7 -6.8,-2.7 z"
   id="path3829"
   inkscape:connector-curvature="0" />
		<path
   d="m 663.9,92.4 c -1.4,-0.2 -2.8,-0.3 -4.3,-0.3 -4.8,0 -8,1.8 -9.7,5.5 v 31.8 H 639.5 V 82.8 h 10 l 0.3,5.2 c 2.5,-4 6,-6.1 10.5,-6.1 1.5,0 2.7,0.2 3.7,0.6 z"
   id="path3831"
   inkscape:connector-curvature="0" />
	</g>
	<g
   id="g3863">
		<path
   d="m 237.3,176.8 c -0.4,3.1 -1.5,5.5 -3.4,7.1 -1.9,1.7 -4.5,2.5 -7.6,2.5 -3.4,0 -6.2,-1.2 -8.3,-3.7 -2.1,-2.5 -3.1,-5.8 -3.1,-9.9 V 170 c 0,-2.7 0.5,-5.1 1.5,-7.1 1,-2.1 2.3,-3.6 4.1,-4.7 1.8,-1.1 3.8,-1.7 6.2,-1.7 3.1,0 5.6,0.9 7.4,2.6 1.9,1.7 3,4.1 3.3,7.2 h -3.9 c -0.3,-2.3 -1.1,-4 -2.2,-5.1 -1.1,-1 -2.7,-1.6 -4.7,-1.6 -2.5,0 -4.4,0.9 -5.8,2.7 -1.4,1.8 -2.1,4.4 -2.1,7.8 v 2.8 c 0,3.2 0.7,5.7 2,7.6 1.3,1.9 3.2,2.8 5.5,2.8 2.1,0 3.8,-0.5 4.9,-1.5 1.1,-1 1.9,-2.7 2.3,-5.1 h 3.9 z"
   id="path3835"
   inkscape:connector-curvature="0" />
		<path
   d="m 251,186.4 c -2.9,0 -5.3,-1 -7.2,-2.9 -1.9,-1.9 -2.8,-4.5 -2.8,-7.7 v -0.7 c 0,-2.1 0.4,-4.1 1.2,-5.8 0.8,-1.7 2,-3 3.4,-4 1.4,-1 3.1,-1.4 4.8,-1.4 2.8,0 5,0.9 6.6,2.8 1.6,1.9 2.3,4.5 2.3,8 v 1.5 h -14.7 c 0.1,2.1 0.7,3.9 1.9,5.2 1.2,1.3 2.7,2 4.6,2 1.3,0 2.4,-0.3 3.3,-0.8 0.9,-0.5 1.7,-1.2 2.4,-2.1 l 2.3,1.8 c -1.8,2.7 -4.5,4.1 -8.1,4.1 z M 250.5,167 c -1.5,0 -2.7,0.5 -3.8,1.6 -1,1.1 -1.6,2.6 -1.9,4.6 h 10.9 v -0.3 c -0.1,-1.9 -0.6,-3.3 -1.5,-4.4 -0.9,-1 -2.1,-1.5 -3.7,-1.5 z"
   id="path3837"
   inkscape:connector-curvature="0" />
		<path
   d="m 282,175.4 c 0,3.3 -0.8,6 -2.3,8 -1.5,2 -3.6,3 -6.1,3 -2.6,0 -4.7,-0.8 -6.2,-2.5 v 10.4 h -3.7 v -30 h 3.4 l 0.2,2.4 c 1.5,-1.9 3.6,-2.8 6.3,-2.8 2.6,0 4.7,1 6.2,2.9 1.5,2 2.3,4.7 2.3,8.2 v 0.4 z m -3.7,-0.4 c 0,-2.4 -0.5,-4.4 -1.6,-5.8 -1,-1.4 -2.5,-2.1 -4.3,-2.1 -2.2,0 -3.9,1 -5,3 v 10.3 c 1.1,2 2.8,3 5.1,3 1.8,0 3.2,-0.7 4.2,-2.1 1,-1.4 1.6,-3.5 1.6,-6.3 z"
   id="path3839"
   inkscape:connector-curvature="0" />
		<path
   d="m 287.1,186 v -21.7 h 8.4 c 2.9,0 5.1,0.5 6.6,1.5 1.5,1 2.3,2.5 2.3,4.4 0,1 -0.3,1.9 -0.9,2.7 -0.6,0.8 -1.5,1.4 -2.7,1.9 1.3,0.3 2.4,0.9 3.2,1.8 0.8,0.9 1.2,2 1.2,3.2 0,2 -0.7,3.5 -2.2,4.6 -1.5,1.1 -3.5,1.6 -6.2,1.6 z m 3.7,-12.5 h 4.8 c 3.5,0 5.2,-1 5.2,-3 0,-2 -1.6,-3.1 -4.9,-3.1 h -5.1 z m 0,3 v 6.5 h 6.1 c 1.5,0 2.7,-0.3 3.5,-0.9 0.8,-0.6 1.2,-1.4 1.2,-2.4 0,-2.2 -1.6,-3.2 -4.8,-3.2 z"
   id="path3841"
   inkscape:connector-curvature="0" />
		<path
   d="m 324.1,164.3 h 3.7 V 186 h -3.7 v -15.8 l -10,15.8 h -3.7 v -21.7 h 3.7 v 15.8 z"
   id="path3843"
   inkscape:connector-curvature="0" />
		<path
   d="m 342.5,183.4 c 1.3,0 2.5,-0.4 3.5,-1.2 1,-0.8 1.5,-1.8 1.6,-3 h 3.5 c -0.1,1.2 -0.5,2.4 -1.3,3.5 -0.8,1.1 -1.8,2 -3.2,2.7 -1.4,0.7 -2.7,1 -4.2,1 -2.9,0 -5.3,-1 -7,-3 -1.7,-2 -2.6,-4.7 -2.6,-8.1 v -0.6 c 0,-2.1 0.4,-4 1.2,-5.6 0.8,-1.6 1.9,-2.9 3.3,-3.8 1.4,-0.9 3.2,-1.4 5.1,-1.4 2.4,0 4.4,0.7 6.1,2.2 1.6,1.5 2.5,3.3 2.6,5.7 h -3.5 c -0.1,-1.4 -0.6,-2.6 -1.6,-3.5 -1,-0.9 -2.1,-1.4 -3.5,-1.4 -1.9,0 -3.3,0.7 -4.4,2 -1,1.4 -1.6,3.3 -1.6,5.9 v 0.7 c 0,2.5 0.5,4.4 1.5,5.8 1.1,1.4 2.6,2.1 4.5,2.1 z"
   id="path3845"
   inkscape:connector-curvature="0" />
		<path
   d="m 370.4,169.6 h 2.8 c 1.7,0 3.1,-0.5 4.1,-1.4 1,-0.9 1.5,-2.1 1.5,-3.6 0,-3.4 -1.7,-5.1 -5.1,-5.1 -1.6,0 -2.9,0.5 -3.8,1.4 -1,0.9 -1.4,2.1 -1.4,3.6 h -3.7 c 0,-2.3 0.8,-4.2 2.5,-5.8 1.7,-1.5 3.8,-2.3 6.4,-2.3 2.7,0 4.9,0.7 6.5,2.2 1.6,1.5 2.3,3.5 2.3,6.1 0,1.3 -0.4,2.5 -1.2,3.7 -0.8,1.2 -1.9,2.1 -3.4,2.7 1.6,0.5 2.8,1.3 3.7,2.5 0.9,1.2 1.3,2.6 1.3,4.3 0,2.6 -0.9,4.7 -2.6,6.2 -1.7,1.5 -3.9,2.3 -6.7,2.3 -2.7,0 -5,-0.7 -6.7,-2.2 -1.7,-1.5 -2.6,-3.4 -2.6,-5.9 h 3.7 c 0,1.5 0.5,2.8 1.5,3.7 1,0.9 2.3,1.4 4,1.4 1.8,0 3.2,-0.5 4.1,-1.4 0.9,-0.9 1.4,-2.3 1.4,-4 0,-1.7 -0.5,-3 -1.6,-3.9 -1,-0.9 -2.5,-1.4 -4.5,-1.4 h -2.8 v -3.1 z"
   id="path3847"
   inkscape:connector-curvature="0" />
		<path
   d="m 387.5,175 c 0,-3.3 0.8,-6 2.4,-8 1.6,-2 3.6,-3 6.2,-3 2.5,0 4.5,0.9 6,2.6 v -11.3 h 3.7 V 186 h -3.4 l -0.2,-2.3 c -1.5,1.8 -3.5,2.7 -6.2,2.7 -2.5,0 -4.6,-1 -6.1,-3.1 -1.6,-2.1 -2.4,-4.7 -2.4,-8 z m 3.7,0.4 c 0,2.5 0.5,4.4 1.5,5.8 1,1.4 2.4,2.1 4.2,2.1 2.3,0 4.1,-1.1 5.1,-3.2 v -9.9 c -1.1,-2 -2.8,-3.1 -5.1,-3.1 -1.8,0 -3.2,0.7 -4.2,2.1 -1,1.4 -1.5,3.5 -1.5,6.2 z"
   id="path3849"
   inkscape:connector-curvature="0" />
		<path
   d="m 449.6,186 h -3.7 v -18.6 h -10 V 186 h -3.7 v -21.7 h 17.4 z"
   id="path3851"
   inkscape:connector-curvature="0" />
		<path
   d="m 464.5,186.4 c -2.9,0 -5.3,-1 -7.2,-2.9 -1.9,-1.9 -2.8,-4.5 -2.8,-7.7 v -0.7 c 0,-2.1 0.4,-4.1 1.2,-5.8 0.8,-1.7 2,-3 3.4,-4 1.4,-1 3.1,-1.4 4.8,-1.4 2.8,0 5,0.9 6.6,2.8 1.6,1.9 2.3,4.5 2.3,8 v 1.5 h -14.7 c 0.1,2.1 0.7,3.9 1.9,5.2 1.2,1.3 2.7,2 4.6,2 1.3,0 2.4,-0.3 3.3,-0.8 0.9,-0.5 1.7,-1.2 2.4,-2.1 l 2.3,1.8 c -1.7,2.7 -4.5,4.1 -8.1,4.1 z M 464,167 c -1.5,0 -2.8,0.5 -3.8,1.6 -1,1.1 -1.6,2.6 -1.9,4.6 h 10.9 v -0.3 c -0.1,-1.9 -0.6,-3.3 -1.5,-4.4 -0.9,-1 -2.1,-1.5 -3.7,-1.5 z"
   id="path3853"
   inkscape:connector-curvature="0" />
		<path
   d="m 493.6,186 h -3.7 v -7.8 c -1.6,0.4 -3.3,0.6 -5,0.6 -2.7,0 -4.8,-0.7 -6.2,-2.1 -1.4,-1.4 -2.1,-3.4 -2.2,-5.9 v -6.5 h 3.7 v 6.6 c 0.1,3.2 1.6,4.8 4.7,4.8 1.7,0 3.4,-0.2 5,-0.6 v -10.8 h 3.7 z"
   id="path3855"
   inkscape:connector-curvature="0" />
		<path
   d="m 512.9,186 c -0.2,-0.4 -0.4,-1.2 -0.5,-2.3 -1.7,1.8 -3.8,2.7 -6.2,2.7 -2.1,0 -3.9,-0.6 -5.3,-1.8 -1.4,-1.2 -2.1,-2.7 -2.1,-4.6 0,-2.3 0.9,-4 2.6,-5.3 1.7,-1.2 4.1,-1.9 7.2,-1.9 h 3.6 v -1.7 c 0,-1.3 -0.4,-2.3 -1.2,-3.1 -0.8,-0.8 -1.9,-1.2 -3.4,-1.2 -1.3,0 -2.4,0.3 -3.3,1 -0.9,0.7 -1.3,1.5 -1.3,2.4 h -3.7 c 0,-1.1 0.4,-2.1 1.2,-3.1 0.8,-1 1.8,-1.8 3.1,-2.4 1.3,-0.6 2.8,-0.9 4.3,-0.9 2.5,0 4.5,0.6 5.9,1.9 1.4,1.2 2.1,3 2.2,5.2 v 10 c 0,2 0.3,3.6 0.8,4.7 v 0.3 h -3.9 z m -6.2,-2.8 c 1.2,0 2.3,-0.3 3.3,-0.9 1,-0.6 1.8,-1.4 2.3,-2.3 v -4.4 h -2.9 c -4.5,0 -6.8,1.3 -6.8,4 0,1.2 0.4,2.1 1.2,2.7 0.7,0.6 1.7,0.9 2.9,0.9 z"
   id="path3857"
   inkscape:connector-curvature="0" />
		<path
   d="m 537.6,167.3 h -7.3 V 186 h -3.7 v -18.7 h -7.1 v -3 h 18.1 z"
   id="path3859"
   inkscape:connector-curvature="0" />
		<path
   d="m 555.2,164.3 h 3.7 V 186 h -3.7 v -15.8 l -10,15.8 h -3.7 v -21.7 h 3.7 v 15.8 z"
   id="path3861"
   inkscape:connector-curvature="0" />
	</g>
</g>
<g
   id="Слой_2"
   class="st1"
   style="display:none"
   transform="translate(-43,-59)">
	<rect
   x="43"
   y="59"
   class="st2"
   width="140"
   height="140"
   id="rect3866"
   style="display:inline;fill:#fbc02d" />
	<rect
   x="213"
   y="65"
   class="st3"
   width="451"
   height="64"
   id="rect3868"
   style="display:inline" />
	<rect
   x="213"
   y="153"
   class="st3"
   width="335"
   height="42"
   id="rect3870"
   style="display:inline" />
</g>
</svg>